<?xml version="1.0" encoding="UTF-8"?>
<svg width="100px" height="300px" viewBox="0 0 100 300" version="1.1" xmlns="http://www.w3.org/2000/svg" xmlns:xlink="http://www.w3.org/1999/xlink">
    <!-- Generator: Sketch 55.2 (78181) - https://sketchapp.com -->
    <title>xtwico备份</title>
    <desc>Created with Sketch.</desc>
    <g id="xtwico备份" stroke="none" stroke-width="1" fill="none" fill-rule="evenodd">
        <path d="M60.5941419,116 L60.5941419,160.004269 C45.7992621,152.086585 31.3616507,152.086585 17.2813077,160.004269 C31.7189191,134.21611 46.1565305,119.54802 60.5941419,116 Z" id="路径-2" stroke="#8A8A8A" stroke-width="3" stroke-linejoin="round"></path>
        <path d="M60.5941419,16 L60.5941419,60.0042695 C45.7992621,52.0865851 31.3616507,52.0865851 17.2813077,60.0042695 C31.7189191,34.21611 46.1565305,19.5480201 60.5941419,16 Z" id="路径-2备份-2" stroke="#000000" stroke-width="3" stroke-linejoin="round"></path>
        <path d="M60.5941419,216 L60.5941419,260.004269 C45.7992621,252.086585 31.3616507,252.086585 17.2813077,260.004269 C31.7189191,234.21611 46.1565305,219.54802 60.5941419,216 Z" id="路径-2备份" stroke="#B86C69" stroke-width="3" stroke-linejoin="round"></path>
        <path d="M65.3008217,126.251672 C65.3008217,126.251672 70.0075016,146.814451 65.3008217,160.004269 C70.5625013,156.34293 76.1076591,156.34293 81.9362951,160.004269 C77.9512092,142.960804 72.4060514,131.709939 65.3008217,126.251672 Z" id="路径-5" stroke="#8A8A8A" stroke-width="3" stroke-linejoin="round"></path>
        <path d="M65.3008217,26.251672 C65.3008217,26.251672 70.0075016,46.8144509 65.3008217,60.0042695 C70.5625013,56.3429304 76.1076591,56.3429304 81.9362951,60.0042695 C77.9512092,42.9608044 72.4060514,31.7099386 65.3008217,26.251672 Z" id="路径-5备份-2" stroke="#000000" stroke-width="3" fill="#F5BDBB" stroke-linejoin="round"></path>
        <path d="M65.3008217,226.251672 C65.3008217,226.251672 70.0075016,246.814451 65.3008217,260.004269 C70.5625013,256.34293 76.1076591,256.34293 81.9362951,260.004269 C77.9512092,242.960804 72.4060514,231.709939 65.3008217,226.251672 Z" id="路径-5备份" stroke="#B86C69" stroke-width="3" stroke-linejoin="round"></path>
        <path d="M17.2813077,165.043077 L81.9362951,165.043077 L81.9362951,182.307078 C53.2705816,182.307078 38.2695006,182.307078 36.9330523,182.307078 C31.8382291,182.307078 25.2876475,176.552411 17.2813077,165.043077 Z" id="路径-6" stroke="#8A8A8A" stroke-width="3" stroke-linejoin="round"></path>
        <path d="M17.2813077,65.0430766 L81.9362951,65.0430766 L81.9362951,82.3070777 C53.2705816,82.3070777 38.2695006,82.3070777 36.9330523,82.3070777 C31.8382291,82.3070777 25.2876475,76.5524106 17.2813077,65.0430766 Z" id="路径-6备份-2" stroke="#000000" stroke-width="3" stroke-linejoin="round"></path>
        <path d="M17.2813077,265.043077 L81.9362951,265.043077 L81.9362951,282.307078 C53.2705816,282.307078 38.2695006,282.307078 36.9330523,282.307078 C31.8382291,282.307078 25.2876475,276.552411 17.2813077,265.043077 Z" id="路径-6备份" stroke="#B86C69" stroke-width="3" stroke-linejoin="round"></path>
        <circle id="椭圆形" stroke="#8A8A8A" stroke-width="3" cx="38" cy="174" r="4"></circle>
        <circle id="椭圆形备份-2" stroke="#000000" stroke-width="3" fill="#F5BDBB" cx="38" cy="74" r="4"></circle>
        <circle id="椭圆形备份" stroke="#B86C69" stroke-width="3" cx="38" cy="274" r="4"></circle>
        <path d="M15.9091494,37.4309958 C15.9091494,37.4309958 28.4228934,35.3587812 31.8151545,42.0467125 C31.8151545,42.0467125 34.5577585,33.0473151 43.5028249,35.0941611 C43.5028249,35.0941611 36.1850241,29.4305299 31.0397408,36.417124 C31.0369048,36.4249159 24.3568957,31.2051985 15.9091494,37.4309958 Z M23.3040518,19.2724192 C23.3040518,19.2724192 22.836666,10.4913247 31.3497631,9.42996483 C31.3497631,9.42996483 23.1037436,6.79314888 20.816892,14.5792186 C20.8252382,14.5792186 13.2802973,12.1331157 7.84693826,20.3006116 C7.84693826,20.3006116 18.1795011,14.4714243 23.3040518,19.2724192 Z" id="形状" fill="#000000" fill-rule="nonzero" transform="translate(25.674882, 25.523356) scale(-1, 1) translate(-25.674882, -25.523356) "></path>
    </g>
</svg>